<svg xmlns="http://www.w3.org/2000/svg" width="800" height="813" viewBox="0 0 800 813" fill="none">
<rect y="13" width="800" height="800" rx="73" fill="#005AA1"/>
<path d="M50 614C50 591.909 67.9086 574 90 574H710C732.091 574 750 591.909 750 614V718C750 740.091 732.091 758 710 758H90C67.9086 758 50 740.091 50 718V614Z" fill="white"/>
<path d="M50 574H750V685H50V574Z" fill="white"/>
<path d="M273.7 522.7C234.65 522.7 200.275 514.45 170.575 497.95C140.875 481.267 117.683 457.983 101 428.1C84.5 398.033 76.25 362.833 76.25 322.5C76.25 282.167 84.775 247.058 101.825 217.175C119.058 187.108 142.708 163.825 172.775 147.325C202.842 130.642 237.217 122.3 275.9 122.3C296.25 122.3 314.858 124.5 331.725 128.9C348.592 133.117 363.167 138.433 375.45 144.85L367.75 211.95C353.817 205.533 339.425 200.308 324.575 196.275C309.908 192.058 293.5 189.95 275.35 189.95C248.4 189.95 225.85 195.633 207.7 207C189.733 218.367 176.167 234.042 167 254.025C157.833 274.008 153.25 296.833 153.25 322.5C153.25 348.167 157.742 370.992 166.725 390.975C175.708 410.958 189.092 426.633 206.875 438C224.842 449.367 247.117 455.05 273.7 455.05C292.217 455.05 308.808 453.033 323.475 449C338.142 444.967 352.9 439.65 367.75 433.05L375.45 500.15C360.967 506.933 345.017 512.342 327.6 516.375C310.367 520.592 292.4 522.7 273.7 522.7ZM529.106 515L392.156 130H463.106L569.256 433.6H554.956L661.656 130H732.606L595.656 515H529.106Z" fill="white"/>
<path d="M241.663 682.851H207.244V661.142H241.663C246.982 661.142 251.312 660.276 254.651 658.544C257.991 656.75 260.434 654.276 261.98 651.122C263.527 647.968 264.3 644.411 264.3 640.453C264.3 636.433 263.527 632.691 261.98 629.228C260.434 625.764 257.991 622.981 254.651 620.878C251.312 618.775 246.982 617.724 241.663 617.724H216.893V731H189.061V595.922H241.663C252.239 595.922 261.3 597.839 268.846 601.674C276.453 605.447 282.267 610.673 286.287 617.353C290.307 624.032 292.317 631.671 292.317 640.268C292.317 648.988 290.307 656.534 286.287 662.904C282.267 669.275 276.453 674.192 268.846 677.655C261.3 681.119 252.239 682.851 241.663 682.851ZM400.306 731H370.896L371.082 709.291H400.306C407.604 709.291 413.758 707.652 418.768 704.374C423.777 701.034 427.55 696.179 430.086 689.809C432.684 683.438 433.982 675.738 433.982 666.708V660.121C433.982 653.194 433.24 647.102 431.756 641.845C430.333 636.588 428.2 632.165 425.354 628.578C422.509 624.991 419.015 622.3 414.871 620.507C410.727 618.651 405.965 617.724 400.584 617.724H370.34V595.922H400.584C409.614 595.922 417.871 597.468 425.354 600.561C432.9 603.591 439.425 607.951 444.93 613.642C450.434 619.332 454.671 626.135 457.64 634.052C460.67 641.907 462.186 650.658 462.186 660.307V666.708C462.186 676.295 460.67 685.046 457.64 692.963C454.671 700.88 450.434 707.683 444.93 713.373C439.487 719.001 432.962 723.362 425.354 726.454C417.809 729.485 409.459 731 400.306 731ZM386.668 595.922V731H358.836V595.922H386.668ZM557.557 595.922V731H529.725V595.922H557.557ZM611.365 653.627V675.336H549.949V653.627H611.365ZM617.859 595.922V617.724H549.949V595.922H617.859Z" fill="#005AA1"/>
</svg>