<?xml version="1.0" encoding="UTF-8"?>
<!DOCTYPE svg PUBLIC "-//W3C//DTD SVG 1.1//EN" "http://www.w3.org/Graphics/SVG/1.1/DTD/svg11.dtd">
<svg xmlns="http://www.w3.org/2000/svg" version="1.1" width="1048px" height="652px" style="shape-rendering:geometricPrecision; text-rendering:geometricPrecision; image-rendering:optimizeQuality; fill-rule:evenodd; clip-rule:evenodd" xmlns:xlink="http://www.w3.org/1999/xlink">
<g><path style="opacity:0.996" fill="#002f55" d="M -0.5,-0.5 C 53.5,-0.5 107.5,-0.5 161.5,-0.5C 236.725,126.943 312.225,254.276 388,381.5C 388.088,324.488 388.755,267.488 390,210.5C 434.577,279.409 478.743,348.576 522.5,418C 477.45,489.943 431.783,561.443 385.5,632.5C 310.135,510.966 234.968,389.299 160,267.5C 159.667,394.833 159.333,522.167 159,649.5C 105.905,650.497 52.7383,650.831 -0.5,650.5C -0.5,433.5 -0.5,216.5 -0.5,-0.5 Z"/></g>
<g><path style="opacity:0.996" fill="#002e55" d="M 389.5,-0.5 C 442.833,-0.5 496.167,-0.5 549.5,-0.5C 549.667,55.1677 549.5,110.834 549,166.5C 495.905,167.497 442.738,167.831 389.5,167.5C 389.5,111.5 389.5,55.5 389.5,-0.5 Z"/></g>
<g><path style="opacity:0.993" fill="#002f55" d="M 389.5,180.5 C 442.501,180.333 495.501,180.5 548.5,181C 570.626,216.089 593.126,250.922 616,285.5C 653.788,229.992 705.955,196.158 772.5,184C 874.502,172.425 953.669,209.259 1010,294.5C 1029.66,327.494 1041.33,363.161 1045,401.5C 1045.9,411.893 1045.57,422.227 1044,432.5C 1034.04,452.264 1018.88,457.764 998.5,449C 990.975,444.478 986.141,437.978 984,429.5C 985.406,408.788 976.572,394.622 957.5,387C 940.727,382.305 925.061,375.305 910.5,366C 907,362.5 903.5,359 900,355.5C 892.085,341.509 882.585,328.675 871.5,317C 853.713,304.047 833.713,297.881 811.5,298.5C 753.936,301.855 716.102,330.855 698,385.5C 694.875,397.325 693.875,409.325 695,421.5C 696.19,426.213 698.19,430.547 701,434.5C 746.697,506.033 792.197,577.7 837.5,649.5C 785.837,650.667 734.17,650.833 682.5,650C 660.192,615.871 637.525,582.038 614.5,548.5C 592.291,582.419 569.958,616.252 547.5,650C 495.833,650.667 444.167,650.667 392.5,650C 441.756,572.819 490.756,495.486 539.5,418C 490.047,339.596 440.214,261.429 390,183.5C 389.517,182.552 389.351,181.552 389.5,180.5 Z"/></g>
<g><path style="opacity:0.971" fill="#47c3e4" d="M 800.5,309.5 C 822.717,307.309 843.384,311.809 862.5,323C 868.333,327.5 873.5,332.667 878,338.5C 885.581,352.42 895.081,364.92 906.5,376C 921.262,384.925 936.929,391.925 953.5,397C 970.547,402.535 977.213,414.035 973.5,431.5C 960.185,428.346 948.852,421.846 939.5,412C 937.5,411 935.5,410 933.5,409C 924.173,409.166 914.839,409.166 905.5,409C 898.82,406.91 892.987,403.41 888,398.5C 860.46,345.485 817.626,326.318 759.5,341C 740.372,348.142 724.705,359.809 712.5,376C 711.833,376.667 711.167,376.667 710.5,376C 728.772,337.886 758.772,315.719 800.5,309.5 Z"/></g>
<g><path style="opacity:0.985" fill="#95d7e8" d="M 782.5,346.5 C 818.067,343.958 846.734,356.625 868.5,384.5C 868.291,385.086 867.957,385.586 867.5,386C 859.849,387.9 852.182,387.9 844.5,386C 829.393,380.945 814.393,375.612 799.5,370C 761.664,362.852 731.498,374.685 709,405.5C 710.24,398.673 712.907,392.339 717,386.5C 733.193,363.825 755.027,350.492 782.5,346.5 Z"/></g>
<g><path style="opacity:0.953" fill="#002e55" d="M 1044.5,454.5 C 1047.8,468.048 1045.63,481.048 1038,493.5C 1030.17,502.777 1021.5,503.777 1012,496.5C 1008.59,490.948 1008.92,485.615 1013,480.5C 1015.17,478.333 1017.33,476.167 1019.5,474C 1026,470.586 1032.33,466.919 1038.5,463C 1041.38,460.721 1043.38,457.888 1044.5,454.5 Z"/></g>
</svg>
